<?xml version="1.0" standalone="no"?>
<!DOCTYPE svg PUBLIC "-//W3C//DTD SVG 20010904//EN"
 "http://www.w3.org/TR/2001/REC-SVG-20010904/DTD/svg10.dtd">
<svg version="1.0" xmlns="http://www.w3.org/2000/svg"
 width="1092.000000pt" height="1280.000000pt" viewBox="0 0 1092.000000 1280.000000"
 preserveAspectRatio="xMidYMid meet">
<g transform="translate(0.000000,1280.000000) scale(0.100000,-0.100000)"
fill="#000000" stroke="none">
<path d="M6690 7715 c0 -4927 0 -4994 -19 -5005 -13 -6 -143 -10 -353 -10
-333 0 -333 0 -386 -25 -68 -32 -143 -109 -181 -188 -34 -69 -75 -217 -64
-228 5 -3 69 -14 143 -23 186 -22 426 -51 1291 -156 410 -49 749 -90 754 -90
13 0 -2 271 -19 335 -24 89 -90 216 -141 273 -25 28 -69 62 -97 76 l-52 26
-320 0 c-177 0 -331 3 -343 6 l-23 6 0 4726 0 4725 -91 273 c-50 151 -92 274
-95 274 -2 0 -4 -2248 -4 -4995z"/>
<path d="M7015 11927 c-3 -6 -4 -201 -3 -432 l3 -420 57 2 c31 1 119 14 195
28 490 93 937 263 1378 526 138 83 335 215 416 281 l34 27 -1038 1 c-821 0
-1039 -3 -1042 -13z"/>
<path d="M6450 10138 c-158 -150 -328 -279 -850 -643 -287 -200 -462 -332
-595 -446 -143 -122 -303 -298 -291 -318 7 -11 152 -60 286 -95 152 -40 425
-99 868 -186 228 -45 468 -95 533 -111 66 -16 127 -29 135 -29 12 0 14 131 14
955 0 525 -3 955 -7 955 -5 -1 -46 -37 -93 -82z"/>
<path d="M4498 8423 c-299 -466 -529 -865 -739 -1285 -93 -186 -100 -203 -84
-215 27 -19 239 -107 396 -163 278 -100 738 -230 1234 -349 210 -50 1227 -281
1239 -281 3 0 6 443 6 985 l0 984 -52 16 c-95 27 -259 63 -634 140 -666 137
-936 201 -1134 270 -58 20 -112 39 -121 42 -12 3 -41 -35 -111 -144z"/>
<path d="M7014 7787 c-2 -7 -3 -235 -2 -507 l3 -495 30 1 c35 0 588 125 688
155 37 11 67 25 67 32 0 7 -33 53 -73 102 -90 113 -706 728 -713 712z"/>
<path d="M7865 6783 c-46 -16 -339 -90 -630 -158 -110 -26 -206 -52 -212 -57
-10 -8 -13 -216 -13 -980 0 -837 2 -969 15 -974 26 -10 794 173 1130 270 180
52 560 178 572 190 11 11 -172 473 -288 728 -78 172 -257 527 -339 673 -90
162 -181 314 -189 319 -3 2 -24 -3 -46 -11z"/>
<path d="M3488 6568 c-169 -379 -299 -712 -429 -1098 -38 -112 -69 -205 -69
-207 0 -8 228 -128 354 -186 568 -262 1304 -504 2321 -762 319 -81 867 -215
880 -215 9 0 5 1819 -4 1824 -5 4 -254 62 -553 130 -1255 288 -1815 448 -2266
647 -73 33 -137 59 -141 59 -4 0 -46 -87 -93 -192z"/>
<path d="M2906 4997 c-91 -299 -214 -801 -285 -1172 -34 -174 -111 -631 -111
-658 0 -4 908 -6 2018 -5 l2017 3 0 365 0 365 -505 126 c-904 225 -1284 333
-1824 516 -430 146 -696 254 -1027 420 -135 68 -248 123 -252 123 -3 0 -17
-37 -31 -83z"/>
<path d="M8705 4864 c-251 -104 -1074 -331 -1615 -445 -30 -6 -61 -16 -67 -21
-10 -8 -13 -142 -13 -608 0 -329 3 -605 6 -614 6 -14 110 -16 1085 -16 l1079
0 0 28 c0 46 -67 458 -105 647 -64 317 -142 619 -237 923 -30 97 -46 132 -57
132 -9 -1 -43 -12 -76 -26z"/>
<path d="M300 2466 c365 -132 533 -201 730 -302 196 -99 324 -191 386 -276
l19 -26 955 -61 c525 -34 1020 -65 1100 -71 307 -20 494 -32 1400 -90 514 -33
1005 -64 1090 -70 85 -6 646 -42 1245 -80 600 -38 1160 -74 1245 -80 870 -59
2016 -128 2021 -122 4 4 24 84 44 177 43 192 80 326 132 467 32 90 92 188 194
321 l22 28 -39 -16 c-131 -54 -267 -153 -317 -228 -52 -77 -111 -204 -157
-333 l-38 -109 -69 3 c-37 1 -162 11 -278 22 -115 11 -842 78 -1615 150 -773
72 -1499 139 -1615 150 -210 20 -464 43 -862 80 -117 11 -309 29 -425 40 -117
11 -748 69 -1403 130 -655 61 -1286 119 -1402 130 -117 11 -309 29 -425 40
-436 40 -654 61 -860 80 -775 73 -1191 110 -1220 109 -23 0 18 -19 142 -63z"/>
<path d="M1560 1562 c0 -5 48 -105 108 -223 244 -486 442 -756 662 -901 172
-114 449 -245 750 -357 91 -33 173 -65 182 -71 12 -7 1040 -10 3050 -10 l3033
1 155 120 c237 183 430 349 596 514 195 193 294 326 340 456 l13 38 -32 5
c-18 3 -99 8 -182 11 -82 3 -235 10 -340 15 -438 22 -650 32 -1630 80 -566 28
-1118 55 -1225 60 -107 5 -292 14 -410 20 -118 6 -303 15 -410 20 -107 5 -292
14 -410 20 -118 6 -303 15 -410 20 -107 5 -751 37 -1430 70 -679 33 -1327 65
-1440 70 -436 22 -600 30 -725 35 -71 3 -156 8 -187 11 -32 3 -58 1 -58 -4z"/>
</g>
</svg>
