<?xml version="1.0" standalone="no"?>
<!DOCTYPE svg PUBLIC "-//W3C//DTD SVG 20010904//EN"
 "http://www.w3.org/TR/2001/REC-SVG-20010904/DTD/svg10.dtd">
<svg version="1.0" xmlns="http://www.w3.org/2000/svg"
 width="512.000000pt" height="512.000000pt" viewBox="0 0 512.000000 512.000000"
 preserveAspectRatio="xMidYMid meet">

<g transform="translate(0.000000,512.000000) scale(0.100000,-0.100000)"
fill="#000000" stroke="none">
<path d="M2330 4599 c-224 -23 -505 -96 -739 -193 -839 -348 -1546 -1147
-1588 -1796 -21 -329 181 -619 584 -836 l71 -39 5 -250 c4 -277 10 -314 73
-440 80 -163 226 -291 398 -349 131 -44 542 -121 801 -150 648 -72 1327 -30
1945 120 243 60 408 183 504 379 63 126 69 163 73 440 l5 251 63 33 c176 91
362 242 451 367 125 175 166 362 129 580 -95 546 -614 1172 -1285 1549 -280
157 -614 274 -920 320 -129 19 -442 27 -570 14z m426 -200 c589 -57 1180 -356
1634 -825 327 -337 530 -726 530 -1013 0 -193 -131 -389 -361 -539 l-94 -62
-5 92 c-3 51 -10 101 -14 111 -23 49 66 47 -1885 47 -1390 0 -1826 -3 -1846
-12 -41 -19 -55 -57 -55 -152 l0 -86 -67 41 c-272 165 -405 372 -390 604 36
554 697 1290 1440 1605 376 160 756 224 1113 189z m1504 -2589 l0 -200 -635 0
c-690 0 -678 1 -703 -55 -15 -33 -15 -57 0 -90 25 -56 13 -55 703 -55 l635 0
0 -50 c0 -186 -117 -373 -283 -451 -108 -50 -500 -130 -807 -164 -610 -68
-1201 -35 -1808 100 -190 42 -263 75 -348 157 -97 93 -154 225 -154 358 l0 50
635 0 c470 0 641 3 660 12 29 13 55 55 55 88 0 33 -26 75 -55 88 -19 9 -190
12 -660 12 l-635 0 0 200 0 200 1700 0 1700 0 0 -200z"/>
<path d="M2466 4150 c-63 -16 -153 -70 -197 -117 -22 -24 -55 -74 -72 -111
-29 -61 -32 -76 -32 -163 0 -90 2 -99 37 -171 45 -90 103 -148 194 -190 l64
-30 0 -199 0 -199 -22 0 c-41 0 -148 30 -219 60 -101 43 -195 107 -284 194
-71 68 -83 76 -118 76 -76 0 -119 -78 -83 -149 19 -36 140 -149 213 -199 131
-89 284 -151 435 -176 l73 -12 5 -120 c3 -65 9 -127 14 -137 10 -21 57 -47 86
-47 33 0 75 26 88 55 7 15 12 73 12 140 l0 115 33 0 c85 0 292 69 402 133 114
66 262 194 291 249 36 70 -7 148 -83 148 -35 0 -47 -8 -118 -76 -89 -87 -183
-151 -284 -194 -71 -30 -178 -60 -218 -60 l-23 0 0 199 0 199 64 30 c91 42
149 100 194 190 35 72 37 81 37 172 0 91 -2 100 -37 172 -68 136 -188 217
-336 224 -42 2 -94 -1 -116 -6z m190 -217 c22 -11 53 -39 69 -62 26 -37 30
-51 30 -109 0 -80 -25 -129 -88 -170 -56 -37 -153 -39 -210 -3 -109 67 -128
220 -39 309 21 21 53 43 72 49 48 16 120 10 166 -14z"/>
<path d="M2511 1596 c-87 -48 -50 -186 49 -186 51 0 100 49 100 99 0 75 -83
124 -149 87z"/>
</g>
</svg>
